<?xml version="1.0" encoding="utf-8"?>
<!-- Generator: Adobe Illustrator 16.2.1, SVG Export Plug-In . SVG Version: 6.00 Build 0)  -->
<!DOCTYPE svg PUBLIC "-//W3C//DTD SVG 1.1//EN" "http://www.w3.org/Graphics/SVG/1.1/DTD/svg11.dtd">
<svg version="1.1" id="レイヤー_1" xmlns="http://www.w3.org/2000/svg" xmlns:xlink="http://www.w3.org/1999/xlink" x="0px"
	 y="0px" width="560px" height="72px" viewBox="0 0 560 72" enable-background="new 0 0 560 72" xml:space="preserve">
<g>
	<path fill="#FFFFFF" d="M47.884,23.43c-4.343-5.296-9.348-7.547-15.533-7.547c-13.82,0-20.794,10.329-20.794,23.046
		c0,12.71,8.292,23.042,20.794,23.042c6.713,0,11.845-2.382,15.664-7.684l7.635,7.287c-5.923,6.885-14.348,9.932-23.298,9.932
		c-19.083,0-31.854-13.509-31.854-32.577c0-18.81,12.903-32.585,31.854-32.585c9.083,0,17.506,3.047,23.692,9.802L47.884,23.43z"/>
	<path fill="#FFFFFF" d="M101.06,6.343c18.957,0,32.911,13.246,32.911,32.585c0,19.335-13.954,32.577-32.911,32.577
		c-18.952,0-32.901-13.242-32.901-32.577C68.159,19.589,82.107,6.343,101.06,6.343z M101.06,61.971
		c13.295,0,21.854-10.065,21.854-23.042c0-12.984-8.558-23.046-21.854-23.046c-13.292,0-21.848,10.062-21.848,23.046
		C79.211,51.905,87.768,61.971,101.06,61.971z"/>
	<path fill="#FFFFFF" d="M146.61,22.634c0-5.692-0.526-10.595-0.526-14.699h9.735c0,3.311,0.265,6.755,0.265,10.199h0.262
		c2.767-6.095,10.397-11.791,20.536-11.791c16.187,0,23.423,10.332,23.423,25.296v38.274h-10.265V32.699
		c0-10.329-4.472-16.817-14.082-16.817c-13.296,0-19.083,9.666-19.083,23.839v30.192H146.61V22.634z"/>
	<path fill="#FFFFFF" d="M220.578,53.627c4.082,5.033,8.56,8.344,15.796,8.344c6.448,0,13.559-2.781,13.559-9.536
		c0-6.621-6.581-8.343-13.165-9.799c-11.711-2.647-21.718-5.167-21.718-18.014c0-12.051,11.582-18.279,23.035-18.279
		c8.689,0,16.713,3.314,20.93,11.261l-8.56,5.692c-2.631-4.37-6.972-7.414-13.026-7.414c-5.66,0-12.114,2.781-12.114,8.606
		c0,5.166,7.371,7.417,15.534,9.009c10.923,2.118,20.139,6.091,20.139,18.537c0,14.042-12.374,19.471-24.614,19.471
		c-10.397,0-17.901-2.78-23.955-11.523L220.578,53.627z"/>
	<path fill="#FFFFFF" d="M320.484,23.433c-4.343-5.299-9.342-7.55-15.528-7.55c-13.823,0-20.798,10.329-20.798,23.046
		c0,12.714,8.292,23.042,20.798,23.042c6.71,0,11.844-2.382,15.661-7.681l7.633,7.284c-5.919,6.885-14.347,9.932-23.294,9.932
		c-19.086,0-31.853-13.509-31.853-32.577c0-18.81,12.899-32.582,31.853-32.582c9.08,0,17.504,3.047,23.69,9.798L320.484,23.433z"/>
	<path fill="#FFFFFF" d="M348.157,0.496c4.155,0,7.399,3.394,7.399,7.442c0,4.311-3.117,7.445-7.399,7.445
		c-4.284,0-7.396-3.135-7.396-7.445C340.762,3.89,344.003,0.496,348.157,0.496z M343.027,30.271h10.265v39.647h-10.265V30.271z"/>
	<path fill="#FFFFFF" d="M400.578,6.347c18.953,0,32.902,13.243,32.902,32.582c0,19.335-13.949,32.577-32.902,32.577
		c-18.954,0-32.906-13.242-32.906-32.577C367.672,19.589,381.624,6.347,400.578,6.347z M400.578,61.971
		c13.293,0,21.85-10.065,21.85-23.042c0-12.984-8.557-23.046-21.85-23.046c-13.294,0-21.851,10.062-21.851,23.046
		C378.728,51.905,387.284,61.971,400.578,61.971z"/>
	<path fill="#FFFFFF" d="M499.291,55.219c0,5.696,0.526,10.596,0.526,14.699h-9.741c0-3.312-0.262-6.755-0.262-10.195h-0.262
		c-2.768,6.092-10.397,11.787-20.533,11.787c-16.187,0-23.426-10.332-23.426-25.297V7.938h10.265v37.215
		c0,10.332,4.473,16.82,14.081,16.82c13.294,0,19.084-9.669,19.084-23.843V7.938h10.268V55.219z"/>
	<path fill="#FFFFFF" d="M520.092,53.627c4.084,5.033,8.553,8.344,15.796,8.344c6.451,0,13.555-2.781,13.555-9.536
		c0-6.621-6.577-8.343-13.158-9.799c-11.718-2.647-21.718-5.167-21.718-18.014c0-12.051,11.579-18.275,23.032-18.275
		c8.686,0,16.716,3.311,20.927,11.257l-8.557,5.692c-2.632-4.37-6.975-7.414-13.028-7.414c-5.661,0-12.109,2.781-12.109,8.609
		c0,5.163,7.369,7.415,15.531,9.006c10.924,2.118,20.139,6.094,20.139,18.537c0,14.042-12.376,19.471-24.613,19.471
		c-10.397,0-17.901-2.783-23.956-11.521L520.092,53.627z"/>
</g>
</svg>
